<svg xmlns="http://www.w3.org/2000/svg" viewBox="0 0 512 512" style="height: 512px; width: 512px;"><defs><filter id="shadow-1" height="300%" width="300%" x="-100%" y="-100%"><feFlood flood-color="rgba(0, 0, 0, 0.8)" result="flood"></feFlood><feComposite in="flood" in2="SourceGraphic" operator="atop" result="composite"></feComposite><feGaussianBlur in="composite" stdDeviation="15" result="blur"></feGaussianBlur><feOffset dx="0" dy="0" result="offset"></feOffset><feComposite in="SourceGraphic" in2="offset" operator="over"></feComposite></filter></defs><path d="M0 0h512v512H0z" fill="transparent" fill-opacity="0"></path><g class="" transform="translate(0,0)" style="touch-action: none;"><path d="M256 16C123.45 16 16 123.45 16 256s107.45 240 240 240 240-107.45 240-240S388.55 16 256 16zm0 60c99.41 0 180 80.59 180 180s-80.59 180-180 180S76 355.41 76 256 156.59 76 256 76zM121.937 182.375A67.5 62.31 0 0 0 106 222.688a67.5 62.309 0 0 0 131.72 20.156 135 69.23 0 0 1-115.782-60.47zm268.125 0a135 69.23 0 0 1-115.78 60.47A67.5 62.31 0 0 0 406 222.687a67.5 62.309 0 0 0-15.938-40.313z" fill="#ffffff" fill-opacity="1" stroke="#4a4a4a" stroke-opacity="1" stroke-width="2" filter="url(#shadow-1)"></path></g></svg>